<svg width="112" height="72" viewBox="0 0 112 72" fill="none" xmlns="http://www.w3.org/2000/svg">
<path d="M46.26 35.81H23.89V34.88H46.17V26H15V29.82H37.28V31.07H15V39.62H46.26V35.81Z" fill="#1A1A1A"/>
<path d="M70.9402 31.07H57.5502V26H48.6602V34.88H70.9402V39.58H79.8302V26H70.9402V31.07Z" fill="#1A1A1A"/>
<path d="M82.2305 26V29.82H88.1105V39.58H97.0005V26H82.2305Z" fill="#1A1A1A"/>
<path d="M15.3496 42.32H18.2096L18.2496 41.56H15.3896L15.3496 42.32Z" fill="#1A1A1A"/>
<path d="M25.5199 44.1L24.9499 41.55H24.1299L24.9499 45.14H26.0999L26.6699 43.12H25.7799L25.5199 44.1Z" fill="#1A1A1A"/>
<path d="M87.0594 43.9L85.4494 41.55L84.4395 41.53L86.8695 45.11L87.8595 45.14L87.8794 45.13V41.55H87.0594V43.9Z" fill="#1A1A1A"/>
<path d="M16.3203 45.11L17.2203 45.12L17.2703 42.69H16.3203V45.11Z" fill="#1A1A1A"/>
<path d="M27.1201 45.11L28.0901 45.14L28.9101 41.55L27.8801 41.56L27.1201 45.11Z" fill="#1A1A1A"/>
<path d="M34.7695 42.54L35.6195 42.52L35.5995 42.02H36.8395V44.67H35.5995V43.44L34.7795 43.43V45.14H37.6495V41.55H34.7795L34.7695 42.54Z" fill="#1A1A1A"/>
<path d="M55.1699 42.58L56.0199 42.57L56.0099 42.06H57.2399V44.71H56.0099V43.49L55.1899 43.47V45.18H58.0599V41.6H55.1899L55.1699 42.58Z" fill="#1A1A1A"/>
<path d="M75.5801 42.54L76.4301 42.52L76.4201 42.02H77.6501V44.67H76.4201L76.4101 43.44L75.5901 43.43V45.14H78.4701V41.55H75.5901L75.5801 42.54Z" fill="#1A1A1A"/>
<path d="M64.2803 42.43L65.1003 42.45V42.02H66.3303V43.11L64.3003 43.1L64.2803 45.13H65.1003V43.58H65.7003L66.3003 45.14H67.1403L66.5403 43.58H67.1403V41.55H64.2803V42.43Z" fill="#1A1A1A"/>
<path d="M84.5996 43.22L84.6096 45.13L85.5596 45.1L85.5196 44.34L84.5996 43.22Z" fill="#1A1A1A"/>
<path d="M95.5 43.63L96.72 43.64V42.83H95.53L95.5 43.63Z" fill="#1A1A1A"/>
<path d="M46.1797 45.09L47.0097 45.08L46.9797 42.48L48.7997 42.45L48.8297 41.6L46.2097 41.63L46.1797 45.09Z" fill="#1A1A1A"/>
<path d="M47.4697 43.01L47.5097 43.95H48.7397L48.7197 43L47.4697 43.01Z" fill="#1A1A1A"/>
<path d="M95.5198 45.11H96.6898L96.6998 44.28L95.5098 44.26L95.5198 45.11Z" fill="#1A1A1A"/>
<path d="M96.7098 42.35L96.6698 41.46L94.0098 41.41L94.0198 45.13L94.9398 45.15L94.8998 42.35H96.7098Z" fill="#1A1A1A"/>
</svg>
