<svg width="112" height="72" viewBox="0 0 112 72" fill="none" xmlns="http://www.w3.org/2000/svg">
<path d="M17.3443 36.0969C17.3443 38.9639 15.433 40.9814 12.1412 40.9814H8V31.1062H12.2474C15.433 31.2123 17.3443 33.2299 17.3443 36.0969ZM9.16804 32.2742V39.8134H12.2474C14.7959 39.8134 16.1763 38.2206 16.1763 35.9907C16.1763 33.7608 14.6897 32.168 12.2474 32.168H9.16804V32.2742Z" fill="#1A1A1A"/>
<path d="M27.2198 31.2124H28.2816L33.1661 41.0876H31.7857L30.4053 38.433H24.9899L23.7156 41.0876H22.4414L27.2198 31.2124ZM29.9806 37.1588L27.8569 32.8052L25.7332 37.1588H29.9806Z" fill="#1A1A1A"/>
<path d="M39.4307 31.2124H40.0678L46.4389 38.5392V31.2124H47.607V40.9815H46.9698L40.5987 33.6547V40.9815H39.4307V31.2124Z" fill="#1A1A1A"/>
<path d="M55.1466 38.433C56.527 39.4948 58.1198 40.132 59.5002 40.132C61.4116 40.132 62.5796 39.2825 62.5796 38.1144C62.5796 37.2649 61.8363 36.5216 60.2435 36.4155C58.5446 36.3093 57.2703 36.3093 56.2085 35.7783C55.2528 35.3536 54.8281 34.6103 54.8281 33.7608C54.8281 32.2742 56.3147 31 58.6507 31C60.3497 31 61.9425 31.5309 63.3229 32.5928L62.5796 33.6546C61.3054 32.699 60.0312 32.168 58.6507 32.168C57.058 32.168 56.1023 32.9113 56.1023 33.6546C56.1023 33.9732 56.3147 34.2918 56.527 34.5041C57.3765 35.1412 58.7569 35.0351 60.5621 35.2474C62.5796 35.4598 63.8538 36.6278 63.8538 38.1144C63.8538 39.8134 62.2611 41.3 59.5002 41.3C57.5889 41.3 55.8899 40.7691 54.4033 39.601L55.1466 38.433Z" fill="#1A1A1A"/>
<path d="M70.9678 31.1062H72.1358V36.0969L77.7636 31.1062H79.3564L75.4276 34.6103L79.9935 40.9814H78.507L74.5781 35.4598L72.1358 37.4773V40.9814H70.9678V31.1062Z" fill="#1A1A1A"/>
<path d="M87.6395 31.1062H86.3652V40.9814H87.6395V31.1062Z" fill="#1A1A1A"/>
<path d="M95.2842 31.2124H95.9213L102.399 38.5392V31.2124H103.567V40.9815H102.93L96.5584 33.6547V40.9815H95.2842V31.2124Z" fill="#1A1A1A"/>
</svg>
