<svg width="112" height="72" viewBox="0 0 112 72" fill="none" xmlns="http://www.w3.org/2000/svg">
<g clip-path="url(#clip0_7_16830)">
<path d="M39.1932 27.0949H37.8262V26.4688H39.5014C40.7918 26.4688 43.122 26.4326 44.5336 26V44.1079H45.9131V44.7344H37.8262V44.1079H39.1932V27.0949Z" fill="#1A1A1A"/>
<path d="M30.5512 27.0949H29.1875V26.4688H30.8627C32.1536 26.4688 34.4861 26.4326 35.8926 26V44.1079H37.273V44.7344H29.1875V44.1079H30.5512V27.0949Z" fill="#1A1A1A"/>
<path d="M69.7567 32.4214V36.1274H69.4039C68.4602 33.1423 63.3733 32.3535 63.3733 34.267C63.3733 36.4298 71.0564 35.1749 71.0564 40.5958C71.0564 41.9698 70.5662 44.96 65.7949 44.96C64.1239 44.96 61.9738 43.9888 61.3555 43.9888C60.7372 43.9888 60.4638 44.9981 60.4638 44.9981H59.9486L59.9541 40.4539H60.4142C60.5867 41.1449 60.9087 41.7894 61.3574 42.3419C62.6144 44.0814 66.6026 45.0568 66.9493 43.2498C67.3541 41.1321 59.5225 42.6661 59.5225 36.6777C59.5918 35.5223 60.1091 34.4398 60.9641 33.6614C61.8191 32.883 62.9439 32.4703 64.0983 32.5116C66.5427 32.5116 67.679 33.4419 68.4616 33.4419C69.2665 33.4419 69.2883 32.4186 69.2883 32.4186L69.7567 32.4214Z" fill="#1A1A1A"/>
<path d="M81.5879 32.4214V36.1274H81.2393C80.2891 33.1423 75.2013 32.3535 75.2013 34.267C75.2013 36.4298 82.8867 35.1749 82.8867 40.5958C82.8867 41.9698 82.3965 44.96 77.6261 44.96C75.9551 44.96 73.8092 43.9888 73.19 43.9888C72.5708 43.9888 72.2937 44.9981 72.2937 44.9981H71.7831L71.7877 40.4539H72.2486C72.4192 41.1461 72.7423 41.7912 73.1942 42.3419C74.4475 44.0814 78.4357 45.0568 78.7805 43.2498C79.19 41.1321 71.3574 42.6661 71.3574 36.6777C71.4261 35.5223 71.9431 34.4396 72.7979 33.6612C73.6527 32.8827 74.7775 32.4701 75.9319 32.5116C78.3749 32.5116 79.5102 33.4419 80.2952 33.4419C81.0926 33.4419 81.1172 32.4186 81.1172 32.4186L81.5879 32.4214Z" fill="#1A1A1A"/>
<path d="M58.6347 41.0665C57.218 42.9795 55.5136 43.9637 53.7608 43.9637C51.4989 43.9637 51.3415 41.5451 51.3415 39.9554V39.2614H58.935C58.935 37.4433 58.2638 32.4279 52.4235 32.4279C48.835 32.4279 45.4688 34.3409 45.4688 38.7228C45.4688 43.9814 50.4132 44.9595 52.4235 44.9595C56.6708 44.9595 58.1705 42.6907 59.0669 41.4944L58.6347 41.0665ZM51.3406 34.5823C51.3406 33.6944 51.7677 33.2665 52.4941 33.2665C53.2205 33.2665 53.6295 33.6944 53.6295 34.5823V38.5409H51.3401L51.3406 34.5823Z" fill="#1A1A1A"/>
<path d="M96.5697 41.0665C95.1544 42.9795 93.45 43.9637 91.6959 43.9637C89.4358 43.9637 89.2719 41.5451 89.2719 39.9554V39.2614H96.8631C96.8631 37.4433 96.1952 32.4279 90.3595 32.4279C86.7663 32.4279 83.4033 34.3409 83.4033 38.7228C83.4033 43.9814 88.3478 44.9595 90.3595 44.9595C94.6035 44.9595 96.1032 42.6907 97 41.4944L96.5697 41.0665ZM89.2701 34.5823C89.2701 33.6944 89.6985 33.2665 90.4305 33.2665C91.1625 33.2665 91.565 33.6944 91.565 34.5823V38.5409H89.2715L89.2701 34.5823Z" fill="#1A1A1A"/>
<path d="M29.1678 41.0665C27.7511 42.9795 26.0481 43.9637 24.2939 43.9637C22.0297 43.9637 21.8732 41.5451 21.8732 39.9554V39.2614H29.4639C29.4639 37.4433 28.7918 32.4279 22.9557 32.4279C19.3648 32.4279 16 34.3409 16 38.7228C16 43.9814 20.9444 44.9595 22.9557 44.9595C27.2006 44.9595 28.6994 42.6907 29.5967 41.4944L29.1678 41.0665ZM21.8719 34.5823C21.8719 33.6944 22.2924 33.2665 23.023 33.2665C23.7536 33.2665 24.1575 33.6944 24.1575 34.5823V38.5409H21.8719V34.5823Z" fill="#1A1A1A"/>
</g>
<defs>
<clipPath id="clip0_7_16830">
<rect width="81" height="19" fill="white" transform="translate(16 26)"/>
</clipPath>
</defs>
</svg>
