<svg width="112" height="72" viewBox="0 0 112 72" fill="none" xmlns="http://www.w3.org/2000/svg">
<path d="M49.9158 40.8406L41.3067 40.8272L52.4031 29.6639L50.7237 27.9877C50.7237 27.9877 42.1321 36.5466 37.8255 40.8371H32.8555L50.7476 23.0232L53.1841 25.374L56.7828 21.8968L66.0817 31.0451L67.7799 29.429L79.244 40.8272L63.6995 40.8237L56.8313 33.9976L49.9169 40.8406H49.9158Z" fill="#1A1A1A"/>
<path d="M41.1918 29.0949C41.2128 29.0138 41.2222 28.9281 41.2561 28.8529C42.4147 26.2777 43.903 23.9152 45.9344 21.9353C48.5229 19.4125 51.6078 17.8203 55.1883 17.2081C56.7415 16.9422 58.2918 16.9113 59.8398 17.2314C61.2235 17.5171 62.4996 18.0436 63.5776 18.9787C64.6333 19.8953 65.3003 21.0246 65.4687 22.5148C65.3126 22.411 65.2103 22.3574 65.1255 22.2839C63.6097 20.9774 61.8659 20.1296 59.9117 19.7046C58.4526 19.3869 56.9812 19.3577 55.5092 19.5693C51.6265 20.1279 48.3213 21.8886 45.4194 24.461C43.9802 25.7372 42.707 27.1674 41.563 28.713C41.4583 28.8541 41.4028 29.0593 41.1777 29.0797L41.1912 29.0943L41.1918 29.0949Z" fill="#1A1A1A"/>
<path d="M88.0983 48.6345C87.6546 46.2377 85.5168 45.6826 83.6888 45.6826C80.839 45.6826 78.9298 46.8475 78.9298 49.5825C78.9298 52.3175 80.7718 53.4824 83.4871 53.4824C85.8395 53.4824 87.668 52.9 88.0983 50.3271H85.6513C85.5302 51.2343 84.737 51.8033 83.6882 51.8033C82.2227 51.8033 81.3757 51.0045 81.3757 49.5825C81.3757 48.1605 82.2227 47.3618 83.6882 47.3618C84.6429 47.3618 85.3689 47.6731 85.6513 48.6345H88.0983ZM71.8856 48.1739C72.2218 47.1717 72.7461 47.0907 73.7539 47.0907C75.1254 47.0907 75.6094 47.3752 75.6094 47.957C75.6094 48.5389 75.3674 48.6613 74.6413 48.7156L72.1276 48.8916C70.689 48.9867 69.1434 49.3656 69.1434 51.1258C69.1434 52.886 70.461 53.4818 72.3428 53.4818C73.4049 53.4818 74.9108 53.2515 75.7169 52.4394C75.7304 52.6965 75.7976 52.9542 75.8783 53.2113H78.2441C78.0827 52.8457 77.9752 52.3852 77.9752 51.7491V48.1471C77.9752 46.7927 77.2491 45.6826 73.8615 45.6826C71.9254 45.6826 69.8823 45.9398 69.5999 48.1745H71.8856V48.1739ZM75.6901 50.2728C75.6901 51.4914 74.359 52.0738 73.1629 52.0738C72.2755 52.0738 71.6705 51.7083 71.6705 51.0582C71.6705 50.4081 72.0873 50.1778 72.9209 50.1102L74.2923 49.9883C74.7629 49.9475 75.2469 49.8939 75.6906 49.677V50.2728H75.6901ZM59.0471 55.9061H61.4129V52.3991H61.4398C61.897 53.0492 62.8785 53.4824 64.209 53.4824C66.4812 53.4824 68.2285 51.9386 68.2285 49.5825C68.2285 47.037 66.3865 45.7637 64.0476 45.7637C63.0527 45.7637 62.2594 45.9666 61.3591 46.942H61.3323V45.9538H59.0466V55.9067L59.0471 55.9061ZM61.3328 49.6228C61.3328 48.2416 62.3681 47.5239 63.5507 47.5239C64.7333 47.5239 65.7826 48.2416 65.7826 49.6228C65.7826 51.004 64.7474 51.7217 63.5507 51.7217C62.3541 51.7217 61.3328 51.004 61.3328 49.6228ZM57.9183 48.6345C57.4746 46.2377 55.3374 45.6826 53.5089 45.6826C50.6591 45.6826 48.7498 46.8475 48.7498 49.5825C48.7498 52.3175 50.5918 53.4824 53.3072 53.4824C55.6595 53.4824 57.4881 52.9 57.9183 50.3271H55.4713C55.3503 51.2343 54.557 51.8033 53.5083 51.8033C52.0427 51.8033 51.1963 51.0045 51.1963 49.5825C51.1963 48.1605 52.0433 47.3618 53.5083 47.3618C54.4629 47.3618 55.1889 47.6731 55.4713 48.6345H57.9183ZM41.504 48.1739C41.8401 47.1717 42.3645 47.0907 43.3729 47.0907C44.7443 47.0907 45.2283 47.3752 45.2283 47.957C45.2283 48.5389 44.9863 48.6613 44.2603 48.7156L41.7466 48.8916C40.3079 48.9867 38.7623 49.3656 38.7623 51.1258C38.7623 52.886 40.08 53.4818 41.9617 53.4818C43.0239 53.4818 44.5298 53.2515 45.3359 52.4394C45.3493 52.6965 45.4166 52.9542 45.4972 53.2113H47.863C47.7017 52.8457 47.5941 52.3852 47.5941 51.7491V48.1471C47.5941 46.7927 46.8681 45.6826 43.4804 45.6826C41.5443 45.6826 39.5012 45.9398 39.2189 48.1745H41.5046L41.504 48.1739ZM45.3084 50.2728C45.3084 51.4914 43.9773 52.0738 42.7813 52.0738C41.8939 52.0738 41.2889 51.7083 41.2889 51.0582C41.2889 50.4081 41.7057 50.1778 42.5393 50.1102L43.9107 49.9883C44.3813 49.9475 44.8653 49.8939 45.309 49.677V50.2728H45.3084ZM35.2128 53.2113H37.5786V48.2958C37.5786 46.3864 36.1668 45.7637 34.7153 45.7637C33.3977 45.7637 32.4033 46.2645 31.7445 47.1315C31.3815 46.3053 30.6285 45.7637 29.2577 45.7637C27.8869 45.7637 26.744 46.4004 26.3138 47.0096H26.2869V45.9532H24V53.2113H26.3664V49.284C26.3664 48.1465 27.1731 47.6049 28.1815 47.6049C28.8403 47.6049 29.6067 47.8754 29.6067 48.8508V53.2113H31.9725V49.284C31.9725 48.1465 32.7792 47.6049 33.7607 47.6049C34.4464 47.6049 35.2128 47.8754 35.2128 48.8508V53.2113Z" fill="#1A1A1A"/>
</svg>
