<?xml version="1.0" encoding="utf-8"?>
<!-- Generator: Adobe Illustrator 28.1.0, SVG Export Plug-In . SVG Version: 6.00 Build 0)  -->
<svg version="1.1" id="レイヤー_1" xmlns="http://www.w3.org/2000/svg" xmlns:xlink="http://www.w3.org/1999/xlink" x="0px"
	 y="0px" viewBox="0 0 112 72" style="enable-background:new 0 0 112 72;" xml:space="preserve">
<path class="st0" d="M44.5,29.7h2v-8h2.9V20h-7.9v1.7h2.9V29.7z"/>
<path class="st0" d="M52.2,25.3H56v4.3h2V20h-2v3.7h-3.8V20h-2v9.7h2V25.3z"/>
<path class="st0" d="M65.8,28h-5.1v-2.5h4.5v-1.7h-4.5v-2h5.1V20h-7v9.7h7V28z"/>
<path class="st0" d="M28,37.4L28,37.4l-3.9-6.8H22v9.7h1.9v-6.9h0l4,6.9h2v-9.7H28V37.4z"/>
<path class="st0" d="M35.5,40.6c1.3,0,4.6-0.5,4.6-5.1s-3.4-5.1-4.6-5.1c-1.3,0-4.6,0.6-4.6,5.1S34.2,40.6,35.5,40.6z M35.5,32.1
	c1.1,0,2.6,0.7,2.6,3.4c0,2.7-1.5,3.4-2.6,3.4c-1.1,0-2.6-0.7-2.6-3.4C32.8,32.8,34.4,32.1,35.5,32.1L35.5,32.1z"/>
<path class="st0" d="M54.4,40.4v-8h2.9v-1.7h-7.9v1.7h2.9v8H54.4z"/>
<path class="st0" d="M63.8,34.3h-3.8v-3.7h-2v9.7h2V36h3.8v4.4h2v-9.7h-2V34.3z"/>
<path class="st0" d="M42.9,36.6h2c1.5,0,1.6,0.5,1.6,1.8c0,0.7,0,1.3,0.2,1.9H49v-0.3c-0.4-0.2-0.4-0.5-0.4-1.9
	c0-1.8-0.4-2.1-1.2-2.5c0.5-0.2,0.9-0.5,1.1-0.9c0.3-0.4,0.4-0.9,0.4-1.4c0-0.4-0.1-0.8-0.2-1.1c-0.2-0.4-0.4-0.7-0.7-0.9
	c-0.3-0.3-0.6-0.5-1-0.6c-0.4-0.1-0.8-0.2-1.1-0.1h-4.9v9.7h2L42.9,36.6z M42.9,32.4h2.5c1.2,0,1.4,0.8,1.4,1.3c0,1-0.5,1.3-1.6,1.3
	h-2.4V32.4z"/>
<path class="st0" d="M41.3,45.3H37v-2.2h4.9v-1.7H35V51h2V47h4.3V45.3z"/>
<path class="st0" d="M44.1,41.4L40.6,51h2.1l0.7-2H47l0.6,2h2.2l-3.4-9.7H44.1z M44,47.4l1.2-3.8l1.2,3.8H44z"/>
<path class="st0" d="M53.9,42.9c0.5,0,1,0.1,1.4,0.4c0.4,0.3,0.7,0.8,0.7,1.3h2c-0.1-1-0.6-1.9-1.4-2.6c-0.8-0.6-1.8-0.9-2.8-0.9
	c-2.5,0-4.4,1.7-4.4,5.1s1.9,5.1,4.4,5.1c1,0,2-0.3,2.8-1s1.3-1.6,1.4-2.6h-2c-0.1,0.5-0.3,1-0.7,1.3c-0.4,0.3-0.9,0.5-1.4,0.5
	c-1.7,0-2.4-1.6-2.4-3.3C51.5,43.5,52.9,42.9,53.9,42.9z"/>
<path class="st0" d="M58.9,51h7v-1.7h-5.1v-2.5h4.5v-1.7h-4.5v-2h5.1v-1.7h-7V51z"/>
<path class="st0" d="M67.8,20h-0.5v9.7h0.4c3.5,0,6.8,1.4,9.3,3.8c2.5,2.4,3.9,5.7,3.9,9.2V51h9.3v-8.6c0-2.9-0.6-5.9-1.7-8.6
	c-1.1-2.7-2.8-5.2-4.9-7.3s-4.6-3.7-7.3-4.9C73.6,20.6,70.7,20,67.8,20z"/>
<path class="st0" d="M67.8,41.3h-0.5V51H72v-5.5c0-1.1-0.4-2.2-1.2-3C70,41.8,68.9,41.3,67.8,41.3z"/>
<path class="st0" d="M67.8,30.7h-0.5v9.7h0.4c0.7,0,1.4,0.1,2,0.4s1.2,0.6,1.7,1.1c0.5,0.5,0.9,1.1,1.1,1.7c0.3,0.6,0.4,1.3,0.4,2
	V51h7v-8.2c0-3.2-1.3-6.3-3.6-8.5S71,30.7,67.8,30.7z"/>
</svg>
