<svg width="112" height="72" viewBox="0 0 112 72" fill="none" xmlns="http://www.w3.org/2000/svg">
<path d="M20.5719 39.4814V40.7754L21.6932 40.1275V38.8336L20.5719 39.4814ZM23.8009 48.6195V40.0506L22.6795 40.6968V48.0452L21.6915 47.5392V41.266L20.5702 41.9121V46.9666L19.5822 46.4624V42.483L11.7021 47.0333V45.8931L19.5822 41.3429V40.0489L11.7021 44.5992V43.459L19.5822 38.9088V37.6148L11.7021 42.1651V41.0249L19.7993 36.3499L20.5702 36.7943V38.3379L21.9069 37.5652L22.6778 38.0097V39.5532L24.0145 38.7806L24.7854 39.225V49.1204L23.7991 48.6144L23.8009 48.6195Z" fill="#1A1A1A"/>
<path d="M16.3535 34.179L17.4731 34.8252V33.5312L16.3535 32.8851V34.179ZM7 32.3518L7.98629 31.7808L15.3655 36.0422V34.7483L9.10591 31.133L10.0922 30.5621L15.3655 33.6081V32.3142L11.2101 29.9142L12.1964 29.3433L15.3638 31.1723V22L16.3518 22.5812V31.7449L17.4714 32.3911V23.2393L18.4594 23.8204V32.9603L19.579 33.6064V24.4803L20.5687 25.0614V34.4286L19.7961 34.873L18.4594 34.1004V35.644L17.6885 36.0884L16.3518 35.3158V36.8593L15.5809 37.3037L7 32.3518Z" fill="#1A1A1A"/>
<path d="M23.0527 33.1791L24.1724 33.8269L25.2937 33.1808L24.1741 32.5329L23.0545 33.1791H23.0527ZM21.8477 36.0576V35.167L23.1844 34.3961L21.8477 33.6235V32.7329L23.1844 31.962L21.8477 31.1894V30.2988L30.4884 25.3127L30.4132 26.4973L23.0527 30.745L24.1724 31.3928L30.3277 27.8425L30.2525 29.0271L25.1604 31.9654L26.28 32.6116L30.1653 30.3706L30.0901 31.5552L27.268 33.1825L35.2044 37.7686L34.2062 38.3327L26.28 33.7534L25.1604 34.3995L33.0763 38.972L32.0781 39.5361L24.1724 34.9687L23.0527 35.6149L30.9465 40.1754L29.9482 40.7395L21.8494 36.0593L21.8477 36.0576Z" fill="#1A1A1A"/>
<path d="M89.0811 30.2082V32.297L91.1271 31.1552V29.0681L89.0811 30.2082Z" fill="#1A1A1A"/>
<path d="M60.1696 37.5858C60.1696 36.1636 59.1919 35.044 57.7526 35.044C56.3134 35.044 55.3168 36.1636 55.3168 37.5858C55.3168 39.0079 56.2946 40.1822 57.7526 40.1822C59.2107 40.1822 60.1696 39.0267 60.1696 37.5858ZM62.214 37.5858C62.214 40.1463 60.2927 42.0488 57.7526 42.0488C55.2126 42.0488 53.2725 40.1463 53.2725 37.5858C53.2725 35.0252 55.192 33.1774 57.7526 33.1774C60.3132 33.1774 62.214 35.044 62.214 37.5858Z" fill="#1A1A1A"/>
<path d="M65.1923 41.7822H63.1309V30.2082L65.1923 29.0681V41.7822Z" fill="#1A1A1A"/>
<path d="M72.9353 39.008V36.1277C72.349 35.2748 71.5319 34.9551 70.6601 34.9551C69.2209 34.9551 68.1713 36.1807 68.1713 37.5687C68.1713 38.9567 69.2209 40.1994 70.6601 40.1994C71.5319 40.1994 72.349 39.8797 72.9353 39.008ZM74.9796 41.7805H72.9353V41.1754C72.243 41.6916 71.3712 41.9754 70.3576 41.9754C68.0106 41.9754 66.127 40.0199 66.127 37.567C66.127 35.1141 68.0106 33.1757 70.3576 33.1757C71.3712 33.1757 72.243 33.4594 72.9353 33.9569V30.2066L74.9796 29.0647V41.7788V41.7805Z" fill="#1A1A1A"/>
<path d="M91.1254 33.3739H89.0811V41.7822H91.1254V33.3739Z" fill="#1A1A1A"/>
<path d="M86.3376 33.3739L84.6266 38.4883L82.9651 33.3739H81.1771L79.5157 38.4883L77.8046 33.3739H75.8457L78.649 41.7822H80.278L82.0797 36.2542L83.883 41.7822H85.4932L88.3136 33.3739H86.3376Z" fill="#1A1A1A"/>
<path d="M101 37.1431V41.7822H98.9554V37.2678C98.9554 35.7927 98.1742 34.9756 96.894 34.9756C96.1658 34.9756 95.3658 35.403 94.7265 36.1841V41.7822H92.665V33.3757H94.7265V34.0697C95.4547 33.4646 96.3076 33.1107 97.3213 33.1107C99.5246 33.1107 101 34.7107 101 37.1448" fill="#1A1A1A"/>
<path d="M50.7766 30.3348C49.6655 29.5092 48.3237 29.0647 46.9152 29.0647C43.3324 29.0647 40.418 31.9792 40.418 35.5619C40.418 39.1447 43.3324 42.0574 46.9152 42.0574C48.9048 42.0574 50.7578 41.1634 51.9987 39.6062L52.221 39.3276V34.5415H47.4998L46.3203 36.5807H50.1817V38.5943C49.339 39.5037 48.1664 40.0182 46.9152 40.0182C44.4571 40.0182 42.4572 38.0183 42.4572 35.5602C42.4572 33.1022 44.4571 31.1023 46.9152 31.1023C47.9562 31.1023 48.9442 31.4578 49.739 32.1091L50.7766 30.3331V30.3348Z" fill="#1A1A1A"/>
</svg>
