<?xml version="1.0" encoding="utf-8"?>
<!-- Generator: Adobe Illustrator 28.1.0, SVG Export Plug-In . SVG Version: 6.00 Build 0)  -->
<svg version="1.1" id="レイヤー_1" xmlns="http://www.w3.org/2000/svg" xmlns:xlink="http://www.w3.org/1999/xlink" x="0px"
	 y="0px" viewBox="0 0 112 72" style="enable-background:new 0 0 112 72;" xml:space="preserve">
<style type="text/css">
	.st0{fill:#1A1A1A;}
</style>
<g>
	<g>
		<path class="st0" d="M17.3,30.6h1.6v7.7h-1.6V30.6z"/>
		<path class="st0" d="M20.8,34.4c0-2.4,1.9-4,4.1-4c1.2,0,2.3,0.5,3,1.3l-1.1,1c-0.4-0.5-1.1-0.8-1.9-0.8c-1.4,0-2.6,1-2.6,2.5
			s1.1,2.5,2.6,2.5c0.8,0,1.4-0.3,1.9-0.8l1.1,1c-0.7,0.8-1.7,1.3-3,1.3C22.7,38.4,20.8,36.9,20.8,34.4z"/>
		<path class="st0" d="M36.6,35.1h-6.1c0.2,1.2,1.1,1.9,2.4,1.9c0.9,0,1.7-0.4,2.1-1.1l1.3,0.6c-0.7,1.3-2.1,1.9-3.5,1.9
			c-2.2,0-4-1.6-4-4s1.8-4,4-4c2.2,0,3.8,1.5,3.8,4C36.7,34.6,36.6,34.9,36.6,35.1z M35,33.8c-0.1-1.2-1-1.9-2.2-1.9
			c-1.2,0-2.1,0.6-2.3,1.9H35z"/>
		<path class="st0" d="M46.5,34.4c0,2.4-1.7,4-3.8,4c-1,0-2.1-0.4-2.7-1.3v1.1h-1.6V26.5h1.6v5.3c0.5-0.9,1.6-1.3,2.7-1.3
			C44.8,30.5,46.5,32,46.5,34.4z M44.9,34.4c0-1.4-1.1-2.4-2.4-2.4c-1.2,0-2.4,0.9-2.4,2.4s1.2,2.5,2.4,2.5
			C43.9,36.9,44.9,35.9,44.9,34.4z"/>
		<path class="st0" d="M53.4,30.7l-0.3,1.5C52.7,32.1,52.3,32,52,32c-1.4,0-2.1,1.5-2.1,3.5v2.8h-1.6v-7.7H50v1.7
			c0.4-1.3,1.2-1.9,2.1-1.9C52.7,30.5,53.2,30.6,53.4,30.7z"/>
		<path class="st0" d="M61.8,35.1h-6.1c0.2,1.2,1.1,1.9,2.4,1.9c0.9,0,1.7-0.4,2.1-1.1l1.3,0.6c-0.7,1.3-2.1,1.9-3.5,1.9
			c-2.2,0-4-1.6-4-4s1.8-4,4-4c2.2,0,3.8,1.5,3.8,4C61.8,34.6,61.8,34.9,61.8,35.1z M60.2,33.8c-0.1-1.2-1-1.9-2.2-1.9
			s-2.1,0.6-2.3,1.9H60.2z"/>
		<path class="st0" d="M71.2,30.6v7.7h-1.6v-1.1C69.1,38,68,38.4,67,38.4c-2.1,0-3.8-1.6-3.8-4c0-2.4,1.7-4,3.8-4
			c1.1,0,2.1,0.4,2.7,1.3v-1.1H71.2z M69.6,34.4c0-1.5-1.3-2.4-2.4-2.4c-1.3,0-2.4,1-2.4,2.4c0,1.4,1.1,2.5,2.4,2.5
			C68.5,36.9,69.6,36,69.6,34.4z"/>
		<path class="st0" d="M78.2,38.3l-3.3-3.6v3.6h-1.6V26.5h1.6v6.8l2.5-2.6h2.2l-3.2,3.3l4,4.3H78.2z"/>
		<path class="st0" d="M88.1,35.1H82c0.2,1.2,1.1,1.9,2.4,1.9c0.9,0,1.7-0.4,2.1-1.1l1.3,0.6c-0.7,1.3-2.1,1.9-3.5,1.9
			c-2.2,0-4-1.6-4-4s1.8-4,4-4c2.2,0,3.8,1.5,3.8,4C88.1,34.6,88.1,34.9,88.1,35.1z M86.5,33.8c-0.1-1.2-1-1.9-2.2-1.9
			c-1.2,0-2.1,0.6-2.3,1.9H86.5z"/>
		<path class="st0" d="M95,30.7l-0.3,1.5c-0.4-0.2-0.8-0.3-1.1-0.3c-1.4,0-2.1,1.5-2.1,3.5v2.8h-1.6v-7.7h1.6v1.7
			c0.4-1.3,1.2-1.9,2.1-1.9C94.2,30.5,94.8,30.6,95,30.7z"/>
	</g>
	<path class="st0" d="M17,27.8c0-0.6,0.5-1,1.1-1c0.6,0,1.1,0.4,1.1,1s-0.5,1-1.1,1C17.5,28.9,17,28.4,17,27.8z"/>
	<path class="st0" d="M90.8,45.5h0.7v-5h-0.7V45.5z M86.9,43.8c0-0.6,0.5-1,1-1c0.5,0,1,0.3,1,1c0,0.6-0.5,1-1,1
		C87.3,44.8,86.9,44.4,86.9,43.8 M88.9,45.5h0.7v-3.3h-0.7v0.5c-0.2-0.4-0.7-0.5-1.1-0.5c-0.9,0-1.7,0.7-1.7,1.7
		c0,1,0.8,1.7,1.7,1.7c0.4,0,0.9-0.2,1.1-0.5V45.5z M84.1,44.3c0-0.9,0.3-1.5,0.9-1.5c0.1,0,0.3,0,0.5,0.1l0.1-0.7
		c-0.1-0.1-0.3-0.1-0.6-0.1c-0.4,0-0.7,0.2-0.9,0.8v-0.7h-0.7v3.3h0.7V44.3z M81.5,43.9c0,0.6-0.4,0.9-0.8,0.9
		c-0.4,0-0.7-0.3-0.7-0.8v-1.8h-0.7v1.9c0,0.9,0.5,1.4,1.3,1.4c0.3,0,0.8-0.2,1-0.5v0.5h0.7v-3.3h-0.7V43.9z M77.7,41H77v1.2h-0.6
		v0.6H77v2.7h0.7v-2.7h0.7v-0.6h-0.7V41z M72.8,43.8c0-0.6,0.5-1,1-1c0.5,0,1,0.3,1,1c0,0.6-0.5,1-1,1
		C73.3,44.8,72.8,44.4,72.8,43.8 M74.8,45.5h0.7v-3.3h-0.7v0.5c-0.2-0.4-0.7-0.5-1.1-0.5c-0.9,0-1.7,0.7-1.7,1.7
		c0,1,0.8,1.7,1.7,1.7c0.4,0,0.9-0.2,1.1-0.5V45.5z M68.9,43.7c0-0.6,0.4-0.9,0.8-0.9c0.4,0,0.7,0.3,0.7,0.8v1.8h0.7v-1.9
		c0-0.9-0.5-1.4-1.2-1.4c-0.4,0-0.8,0.2-1,0.6v-0.5h-0.7v3.3h0.7V43.7z M63.2,45.5c0.9,0,1.7-0.7,1.7-1.7c0-1-0.8-1.7-1.7-1.7
		c-0.9,0-1.7,0.7-1.7,1.7C61.5,44.9,62.2,45.5,63.2,45.5 M63.2,44.8c-0.5,0-1-0.4-1-1c0-0.6,0.4-1,1-1c0.5,0,1,0.4,1,1
		C64.2,44.4,63.7,44.8,63.2,44.8 M60.2,41h-0.7v1.2h-0.6v0.6h0.6v2.7h0.7v-2.7h0.7v-0.6h-0.7V41z M53.4,43.6c0.1-0.5,0.5-0.8,1-0.8
		c0.5,0,0.9,0.3,0.9,0.8H53.4z M56,43.8c0-1-0.7-1.7-1.6-1.7c-0.9,0-1.7,0.7-1.7,1.7c0,1,0.7,1.7,1.7,1.7c0.6,0,1.2-0.3,1.5-0.8
		c-0.2-0.1-0.4-0.2-0.6-0.3c-0.2,0.3-0.5,0.5-0.9,0.5c-0.5,0-0.9-0.3-1-0.8H56C56,44,56,43.9,56,43.8 M50.2,45.5h0.7l1.4-3.3h-0.8
		l-0.9,2.3l-0.9-2.3h-0.8L50.2,45.5z M46.6,45.5c0.9,0,1.7-0.7,1.7-1.7c0-1-0.8-1.7-1.7-1.7c-0.9,0-1.7,0.7-1.7,1.7
		C44.9,44.9,45.7,45.5,46.6,45.5 M46.6,44.8c-0.5,0-1-0.4-1-1c0-0.6,0.4-1,1-1c0.5,0,1,0.4,1,1C47.6,44.4,47.2,44.8,46.6,44.8
		 M41.3,44.1l-1.6-3.4H39l-0.6,4.8h0.7l0.4-3.4l1.4,2.9h0.6L43,42l0.4,3.4h0.7l-0.6-4.8h-0.7L41.3,44.1z"/>
</g>
</svg>
