<svg width="112" height="72" viewBox="0 0 112 72" fill="none" xmlns="http://www.w3.org/2000/svg">
<path d="M60.5325 37.5659C60.5176 37.4868 60.4806 37.4076 60.4362 37.3356C60.2955 37.1772 60.0585 37.1484 59.8807 37.2564C59.7104 37.3716 59.577 37.5371 59.503 37.7315C59.4215 37.9115 59.3697 38.1058 59.3475 38.3002C59.2734 39.0129 59.466 39.7327 59.8807 40.3302C60.3473 41.1221 61.2286 41.59 62.1618 41.5396C64.0504 41.3236 65.4946 39.8119 65.5909 37.9691C65.8353 35.6799 65.1243 33.2324 64.8503 30.9864C64.5688 29.0931 64.6429 27.1639 65.0725 25.2994C65.2724 24.1764 65.8501 23.1542 66.7092 22.384C67.1092 22.0888 67.6868 22.024 67.9535 22.5639C68.0497 22.8303 68.0794 23.111 68.0349 23.3846C67.8498 24.6444 67.3832 25.8537 66.6722 26.9191C66.4426 27.1783 66.3389 27.531 66.4056 27.8694C66.5241 28.1213 66.7833 28.2869 67.0647 28.2941C67.7091 28.2725 68.309 27.9701 68.6941 27.4734C69.842 26.1849 70.4716 24.5364 70.4716 22.8303C70.4716 21.0522 69.3014 19.5909 67.4424 19.7997C63.7467 20.2244 62.4507 24.6228 62.1692 27.7686C62.1026 30.2377 62.2729 32.7069 62.6877 35.14V35.4639C62.7839 36.227 62.8432 36.9901 62.8506 37.7531C62.8802 38.077 62.8136 38.4082 62.6654 38.7033C61.9767 39.8767 60.7176 38.3146 60.5028 37.5875M68.383 34.9168C68.1164 35.9678 67.9164 37.0116 67.6646 38.0698C67.5313 38.4802 67.4572 38.9049 67.4498 39.3368C67.4572 39.5816 67.6128 39.7975 67.8498 39.8839C67.9905 39.9199 68.146 39.9199 68.2867 39.8839C68.6719 39.8047 69.0422 39.6536 69.368 39.4304C69.8346 39.0201 70.1531 38.4802 70.2716 37.8827C70.4197 37.4436 70.553 37.0044 70.6938 36.5581C70.8345 36.1118 71.0048 35.4855 71.1529 34.96C71.4196 34.0098 71.5529 32.93 71.8343 31.9366C71.8343 31.8718 71.8343 31.807 71.938 31.7854C72.0417 31.7638 72.0713 31.8646 72.1157 31.9294C72.4935 32.7788 72.6342 33.7003 72.9527 34.5785L73.6637 36.5365C73.8118 37.1844 74.0932 37.8035 74.5005 38.3362C74.6339 38.5018 74.8264 38.6098 75.0338 38.6385C75.3671 38.617 75.6411 38.3722 75.6855 38.0483C75.7522 37.4436 75.6929 36.8317 75.5004 36.2558C75.3449 35.6367 75.1893 35.0248 75.0486 34.3625C74.7672 33.0812 74.5154 31.7926 74.2784 30.5041C74.2561 30.3817 74.2561 30.2593 74.2784 30.1369C74.3228 30.0218 74.3969 29.9138 74.4931 29.8346C75.8114 28.4309 77.0113 26.9191 78.0629 25.3138C78.7221 24.306 79.4257 23.3126 80.0108 22.2616C80.3144 21.7361 80.581 21.189 80.8106 20.6203C81.055 20.1092 81.218 19.5549 81.2772 18.9934C81.2994 18.7127 81.1958 18.4391 80.9958 18.2448C80.781 18.1008 80.5218 18.0432 80.2626 18.0864C79.7219 18.18 79.2331 18.4679 78.8998 18.8926C78.1518 19.9868 77.5149 21.1386 76.9964 22.348C76.3373 23.5214 75.6041 24.6588 74.8709 25.7889C74.2932 26.7176 73.6414 27.5886 72.923 28.4165C72.849 28.5244 72.7157 28.5964 72.5823 28.5964C72.5009 28.4165 72.5009 28.2077 72.5823 28.0277C72.923 26.7752 73.5007 25.6234 73.8858 24.3996C74.1376 23.5862 74.4487 22.8015 74.782 22.024C75.1153 21.2466 75.2856 20.6347 75.5522 19.922C75.6559 19.6989 75.73 19.4541 75.7596 19.2094C75.7818 19.1446 75.7818 19.0798 75.7596 19.0222C75.7004 18.907 75.5744 18.835 75.4411 18.835C75.1523 18.8134 74.8709 18.8782 74.6116 19.0078C73.2637 19.7205 72.3009 20.9658 71.9676 22.42C71.1455 25.0619 70.3234 27.7254 69.5828 30.3889C69.1607 31.8862 68.7385 33.3763 68.3534 34.8808M48.3344 40.8629C47.9937 41.9139 47.7419 42.9937 47.5938 44.0807C47.5123 44.7142 47.9567 45.8228 48.8973 45.031C49.4528 44.4551 49.8305 43.7352 49.9786 42.9577C50.1415 42.3531 50.5119 41.2733 50.6896 40.6686C51.3784 38.3074 52.082 35.9319 52.793 33.6283C53.1559 32.4333 53.4966 31.2383 53.8298 30.0505C54.0076 29.4243 54.1705 28.8124 54.3483 28.1573C54.4371 27.8046 54.4964 26.8687 54.8075 26.6672C54.8075 27.855 54.689 29.0355 54.4668 30.2017C54.1779 32.095 53.8817 34.0602 53.7039 35.9966C53.4447 38.0051 53.4003 40.0351 53.578 42.0507C53.5928 42.3027 53.6595 42.5546 53.7632 42.7922C53.8595 43.0225 54.0594 43.2025 54.3112 43.2673C54.5408 43.3033 54.7778 43.2673 54.9852 43.1737C55.2148 43.1089 55.4296 43.0081 55.6295 42.8786C55.9036 42.6194 56.0887 42.2955 56.1776 41.9283C56.6442 40.4886 57.1552 39.0849 57.5848 37.6379C58.1032 35.9534 58.5624 34.2546 59.0734 32.5773L59.2808 31.915C60.1992 28.942 61.2953 25.9113 61.9396 22.8519C61.9396 22.6791 62.0063 22.5136 62.0359 22.3408C62.1026 22.1608 62.1026 21.9665 62.0359 21.7937C61.9026 21.6281 61.6878 21.5489 61.473 21.5777C60.962 21.6497 60.5176 21.9377 60.2362 22.3552C59.9622 22.7799 59.7474 23.2406 59.5993 23.7229C59.1401 25.0043 58.792 26.2929 58.4365 27.6174C58.081 28.942 57.7847 30.0074 57.4589 31.1879C57.3404 31.9078 57.0515 32.6781 56.8664 33.3979C56.5924 34.4129 56.2739 35.4207 55.8888 36.3998C55.7629 36.1406 55.7184 35.8527 55.7703 35.5791C56.0221 32.0158 56.2813 28.4524 56.5405 24.8891C56.5998 24.3636 56.4961 23.8309 56.2517 23.363C55.5333 22.204 54.1853 23.363 53.815 24.1692C53.1262 25.8537 52.5263 27.5742 52.0301 29.3235C51.0081 32.5269 49.9712 35.7519 48.9195 39.0057C48.7714 39.4592 48.4677 40.4238 48.3344 40.8989M42.1651 26.7896C42.7872 25.0763 42.9723 23.2334 42.6983 21.4338C42.5428 20.7283 42.2095 20.0804 41.7207 19.5405C40.8986 18.7271 39.721 18.3383 38.5508 18.5039C37.2844 18.6983 36.1068 19.2598 35.1662 20.1164C33.6405 21.6209 32.5296 23.471 31.9297 25.501C30.7891 29.0427 30.5521 32.8004 31.2483 36.4502C31.6557 38.545 32.2185 40.6182 32.9221 42.6338C33.5739 44.527 34.3811 46.3483 34.1293 48.4215C33.9516 49.8325 32.1 51.6825 30.6855 50.4515C30.33 50.1132 30.1078 49.6597 30.0633 49.1846C30.0115 48.0544 30.2189 46.9242 30.678 45.8804C30.841 45.5421 30.841 45.1533 30.678 44.8222C30.5225 44.6278 30.2855 44.5198 30.0337 44.527C29.7893 44.5414 29.5449 44.599 29.3227 44.6998C27.2045 45.4845 26.5824 48.8966 27.2638 50.8547C28.3747 54.0077 31.6853 55.0011 34.5959 52.8631C36.9363 51.1498 37.4251 48.4791 36.9511 45.7508C36.5289 43.836 35.9661 41.9715 35.2847 40.1431C35.0995 39.5528 34.9218 38.9553 34.7811 38.3506C34.4034 36.9037 34.1516 35.4279 34.0331 33.9378C33.5887 29.8274 34.6256 25.6954 36.9585 22.2472C37.5436 21.441 38.9656 20.5123 39.6766 21.7361C40.3876 22.9599 39.7655 24.5796 39.41 25.753C39.2174 26.48 38.9656 27.1855 38.6619 27.8766C38.2694 28.7188 37.8843 29.561 37.4992 30.4033C37.2103 30.8424 37.1511 31.3823 37.3362 31.8718C37.588 32.2389 38.062 32.4045 38.499 32.2821C38.9211 32.1454 39.2989 31.9006 39.5803 31.5623C40.8171 30.1945 41.7133 28.5748 42.2095 26.8256M38.8249 43.1161C38.7064 43.8576 38.7064 44.6206 38.8249 45.3621C38.8841 46.0892 39.2322 46.773 39.8025 47.2553C40.706 47.8744 42.4243 47.5217 43.2612 46.953C44.2092 46.2547 44.9646 45.3333 45.446 44.2751C46.157 42.7346 46.7791 41.1509 47.2976 39.5384C48.3789 36.6301 49.2454 33.7291 50.1267 30.756C50.4674 29.5466 50.8896 28.3085 51.1636 27.0631C51.3414 26.444 51.4302 25.8105 51.4302 25.1699C51.4154 24.8387 51.1266 24.5724 50.7859 24.5868C50.6378 24.594 50.497 24.6444 50.386 24.7451C50.2526 24.8891 50.149 25.0547 50.0749 25.2346C48.9343 27.4806 48.2159 29.8778 47.305 32.2173C47.0013 33.0164 46.6977 33.8154 46.4088 34.6217C45.7719 36.371 45.2016 38.1562 44.5573 39.9055C44.2462 40.7477 43.9129 41.5756 43.5797 42.4034C43.313 43.1737 42.8909 43.8792 42.3428 44.4911C42.1947 44.6494 41.9947 44.8006 41.7874 44.7502C40.6986 44.4191 42.2465 40.5822 42.4465 39.8335C42.8835 38.2138 43.2908 36.5725 43.8241 34.9528C44.498 32.8652 45.2164 30.7056 46.0681 28.6684C46.3644 27.9557 46.5792 27.2143 46.7199 26.4584C46.7791 26.1057 46.7717 25.681 46.4681 25.5082C46.357 25.4434 46.2311 25.4074 46.0978 25.4074C45.8978 25.3786 45.6904 25.3786 45.483 25.4074C45.2016 25.4578 44.9424 25.5802 44.7202 25.7458C44.5128 25.9329 44.3351 26.1489 44.187 26.3792C42.6391 28.7188 41.9133 31.7062 41.0171 34.3337C40.0099 37.1916 39.2692 40.1287 38.8027 43.1161M77.2482 40.6686C76.1225 40.6758 74.9968 40.7693 73.8858 40.9493C72.7527 41.1077 71.6343 41.1653 70.5012 41.3308C68.0349 41.6908 65.6279 42.1299 63.1542 42.6554C56.5109 44.0159 50.023 45.9812 43.7574 48.5223C42.1206 49.2062 40.4839 49.7893 38.8841 50.6315C38.6767 50.7323 38.4472 50.9554 38.5657 51.1498C38.6842 51.3514 38.8841 51.2938 39.0619 51.2362C39.5729 51.1642 40.0691 51.0202 40.5357 50.8115L42.4243 50.2068C43.6685 49.7893 44.9424 49.3933 46.194 49.0118C52.8004 47.0466 59.5252 45.4629 66.3241 44.2751H66.4204C67.835 44.0303 69.2495 43.8144 70.6715 43.6488C72.0935 43.4904 73.397 43.3897 74.7672 43.2961C75.6263 43.2817 76.478 43.1953 77.3223 43.0513C77.5593 42.9937 77.7889 42.9217 78.0111 42.821C78.1444 42.7778 78.2629 42.6986 78.3592 42.605C78.4703 42.461 78.5369 42.2811 78.5517 42.1011C78.611 41.8132 78.574 41.5108 78.4481 41.2517C78.1814 40.8701 77.7222 40.6614 77.2482 40.6902M85.0914 18C84.573 18.0216 84.0768 18.2304 83.7065 18.5903C82.9066 19.3605 82.3067 20.3036 81.9438 21.3402L81.8771 21.5201C81.0773 23.471 80.4255 25.4794 79.9293 27.5238C79.4257 29.5394 78.7221 31.5119 78.2925 33.5491C78.0185 34.8305 77.7297 36.0902 77.5519 37.3356C77.5001 37.5587 77.5149 37.7891 77.6112 37.9979C77.8037 38.2354 78.1074 38.3506 78.411 38.3002C78.6258 38.293 78.8406 38.2282 79.0257 38.113C79.2627 37.8899 79.4183 37.6019 79.4849 37.2924C80.1293 35.2336 80.7884 33.1892 81.5142 31.1663C82.2326 29.1363 82.7881 27.2071 83.4621 25.2562C83.8842 24.1405 84.3212 23.0319 84.7655 21.9305C85.0025 21.369 85.2321 20.8147 85.4765 20.2604C85.7358 19.8573 85.9061 19.4181 85.995 18.9502C86.0468 18.4751 85.6913 18.0576 85.2025 18.0072C85.1581 18 85.1284 18 85.0914 18Z" fill="#1A1A1A"/>
</svg>
