<?xml version="1.0" encoding="utf-8"?>
<!-- Generator: Adobe Illustrator 28.1.0, SVG Export Plug-In . SVG Version: 6.00 Build 0)  -->
<svg version="1.1" id="レイヤー_1" xmlns="http://www.w3.org/2000/svg" xmlns:xlink="http://www.w3.org/1999/xlink" x="0px"
	 y="0px" viewBox="0 0 112 72" style="enable-background:new 0 0 112 72;" xml:space="preserve">
<style type="text/css">
	.st0{fill:#1A1A1A;}
</style>
<g>
	<path class="st0" d="M29.9,51.7c-0.6,0.2-0.8,0-0.9-0.2c-0.1-0.2,0-0.5,0.4-0.7c0,0,19.7-9.9,20-10c0.3-0.2,0.4-0.2,0.5-0.3
		c0.1-0.1,0.1-0.2,0.1-0.3c0-0.2-0.1-0.4-0.4-0.5c0,0-11.7-2.7-11.8-2.7c-0.3-0.1-0.5-0.2-0.4-0.4c0-0.1,0.1-0.2,0.4-0.3h34.1
		c0.7,0,1.3,0.1,1.3,0.7c0.1,0.6-0.4,1-1.7,1.4L29.9,51.7z"/>
	<path class="st0" d="M86,26.5l-0.9,5.1c-0.1,0.8-0.5,1.5-1.3,2.1c-0.7,0.5-1.3,0.5-2.1,0.5h-3.4c-0.8,0-1.4,0-2-0.5
		c-0.5-0.4-0.6-0.9-0.6-1.5c0-0.2,0-0.4,0.1-0.7l0.9-5c0.3-1,0.5-1.6,1.3-2.1c0.8-0.5,1.3-0.5,2.2-0.5h3.4c0.7,0,1.4,0,1.9,0.5
		c0.5,0.4,0.6,0.9,0.6,1.5C86.1,26.1,86,26.3,86,26.5 M83.7,25.9c-0.3-0.3-0.6-0.3-1.1-0.3h-2.4c-1,0-1.6,0.4-1.8,1.4l-0.7,4.1
		c0,0.1,0,0.2,0,0.4c0,0.3,0.1,0.5,0.3,0.7c0.3,0.3,0.6,0.3,1,0.3h2.5c0.5,0,0.7,0,1.1-0.3c0.4-0.3,0.6-0.6,0.6-1L84,27
		c0-0.1,0-0.2,0-0.3C84,26.3,83.9,26.1,83.7,25.9z"/>
	<path class="st0" d="M32.8,25.6h-4.3c-0.5,0-0.7,0-1.1,0.2c-0.6,0.3-0.7,0.9-0.7,1.4c0,0.7,0.7,0.8,1.4,0.8h2.5
		c1.4,0,2.1,0.8,2.1,2c0,0.5-0.2,1.1-0.2,1.6c-0.1,0.7-0.5,1.3-1,1.7c-0.7,0.6-1.2,0.7-2.1,0.7H24l0.3-1.8h4.9
		c1.2,0,1.6-0.7,1.6-1.7c0-0.7-0.4-0.8-1.1-0.8h-2.4c-1.3,0-2.5-0.6-2.5-1.9c0-0.6,0.2-1.2,0.3-1.7c0.1-0.7,0.6-1.4,1.3-1.9
		c0.6-0.4,1.2-0.4,2-0.4h4.8L32.8,25.6z"/>
	<path class="st0" d="M43.8,26.5c-0.3,1.7-0.6,3.4-0.9,5c-0.3,1.5-1.6,2.6-3.3,2.6h-4.6l-0.7,3.6h-1.9l1.9-11.2
		c0.3-1.7,1.4-2.7,3.3-2.7h3.5c1.5,0,2.7,0.5,2.7,2C43.9,26.1,43.9,26.3,43.8,26.5 M38.2,25.6c-1,0-1.7,0.5-1.8,1.4l-0.8,4.9
		c-0.1,0.3,0.2,0.4,0.4,0.4h3.6c0.9,0,1.5-0.5,1.7-1.3l0.7-4.1c0-0.1,0-0.2,0-0.3c0-0.3-0.1-0.5-0.3-0.7c-0.3-0.3-0.6-0.3-1.1-0.3
		H38.2z"/>
	<path class="st0" d="M65.2,31.5c0.3-1.7,0.6-3.4,0.9-5c0.3-1.5,1.6-2.6,3.3-2.6h4.6l0.6-3.6h1.9l-1.9,11.2
		c-0.3,1.7-1.4,2.7-3.3,2.7h-3.5c-1.5,0-2.7-0.5-2.7-2C65.1,31.9,65.1,31.7,65.2,31.5 M70.8,32.4c1,0,1.7-0.4,1.8-1.4l0.9-4.9
		c0.1-0.3-0.2-0.4-0.4-0.4h-3.5c-0.9,0-1.5,0.5-1.7,1.3L67.1,31c0,0.1,0,0.2,0,0.3c0,0.3,0.1,0.5,0.3,0.7c0.3,0.3,0.6,0.3,1.1,0.3
		L70.8,32.4z"/>
	<path class="st0" d="M64.1,29.8c0.1-0.7,0.6-3.4,0.6-4.1c0-1.4-1.1-1.9-2.4-1.9H59c-1.9,0-3.1,0.8-3.4,2.6l-0.8,4.9
		c0,0.3-0.1,0.5-0.1,0.8c0,0.6,0.2,1,0.6,1.4c0.6,0.5,1.3,0.6,2.1,0.6h5.9l0.3-1.8H58c-0.4,0-0.7,0.1-1.1-0.2
		c-0.3-0.2-0.3-0.4-0.3-0.7c0-0.2,0.2-1.3,0.2-1.6H64.1 M57.3,26.9c0.2-1,1-1.3,2-1.3h2.1c0.6,0,1.3,0.2,1.3,0.9
		c0,0.1-0.1,0.9-0.2,1.4l0,0c-0.1,0.4-0.2,0.4-0.5,0.4h-4.9L57.3,26.9z"/>
	<path class="st0" d="M53.6,29.8c0.1-0.7,0.6-3.4,0.6-4.1c0-1.4-1.1-1.9-2.4-1.9h-3.3c-1.9,0-3.1,0.8-3.4,2.6l-0.8,4.9
		c0,0.3-0.1,0.5-0.1,0.8c0,0.6,0.2,1,0.6,1.4c0.6,0.5,1.3,0.6,2.2,0.6h5.9l0.3-1.8h-5.6c-0.4,0-0.7,0.1-1.1-0.2
		c-0.3-0.2-0.3-0.4-0.3-0.7c0-0.2,0.2-1.3,0.2-1.6H53.6 M46.9,26.9c0.2-1,1-1.3,2-1.3h2.1c0.6,0,1.3,0.2,1.3,0.9
		c0,0.1-0.1,0.9-0.2,1.4l0,0c-0.1,0.4-0.2,0.4-0.5,0.4h-4.9L46.9,26.9z"/>
	<path class="st0" d="M87.2,23l-0.1-0.2c0-0.1-0.1-0.2-0.2-0.2c0,0-0.1-0.1-0.2-0.1h0l0,0.5l-0.2,0l0-1.1l0.6,0
		c0.2,0,0.4,0.1,0.4,0.3c0,0.2-0.1,0.3-0.3,0.3l0,0c0.1,0,0.1,0.1,0.2,0.3l0.1,0.2H87.2z M86.9,22.4c0.2,0,0.2-0.1,0.2-0.2
		c0-0.1-0.1-0.2-0.2-0.2h-0.2l0,0.3H86.9z M86.1,22.5c0,0.5,0.4,0.9,0.9,0.9c0.5,0,0.8-0.4,0.9-0.9c0-0.5-0.4-0.9-0.9-0.9
		C86.5,21.6,86.1,22,86.1,22.5z M88,22.5c0,0.6-0.5,1.1-1.1,1.1c-0.6,0-1.1-0.5-1.1-1.1c0-0.6,0.5-1.1,1.1-1.1
		C87.5,21.4,88,21.9,88,22.5z"/>
</g>
</svg>
