<?xml version="1.0" encoding="utf-8"?>
<!-- Generator: Adobe Illustrator 28.1.0, SVG Export Plug-In . SVG Version: 6.00 Build 0)  -->
<svg version="1.1" id="レイヤー_1" xmlns="http://www.w3.org/2000/svg" xmlns:xlink="http://www.w3.org/1999/xlink" x="0px"
	 y="0px" viewBox="0 0 112 72" style="enable-background:new 0 0 112 72;" xml:space="preserve">
<g>
	<path d="M44.9,23.9c0.1-0.3,0-0.5-0.4-0.5h-1.1c-0.3,0-0.7,0.2-0.8,0.5c-0.3,0.7-5.8,15-6.2,15.9c-0.3,0.7-0.9,1.5-2.1,1.5
		c-0.5,0-1-0.2-1.2-0.5c-0.2-0.3-0.2-0.6-0.2-1c0.1-0.3,0.5-1.5,0.5-1.5c1.2-3.1,3.3-8.6,4.5-11.7c0.1-0.3,0-0.5-0.4-0.5h-1.1
		c-0.3,0-0.7,0.2-0.8,0.5c-1.7,4.5-4.8,12.3-5.1,13.2c-0.3,0.7-0.9,1.5-2.1,1.5c-0.5,0-1-0.2-1.2-0.5c-0.2-0.3-0.2-0.6-0.2-1
		c0.1-0.4,0.4-1.3,0.4-1.3l2.2-5.6c0.1-0.3,0-0.5-0.4-0.5h-1.1c-0.3,0-0.7,0.2-0.8,0.5l-0.6,1.5c-0.1-0.2-0.3-0.4-0.4-0.6
		c-0.9-1.1-2.3-1.7-3.8-1.7c-3.1,0-5.9,2.5-6.4,5.5c-0.2,1.6,0.2,3,1.1,4.1c0.9,1.1,2.3,1.7,3.8,1.7c1.5,0,3-0.6,4.2-1.7
		c0.5,0.9,1.6,1.7,3,1.7c1.2,0,2.2-0.5,3-1.3c0.6,0.8,1.6,1.3,2.8,1.3c0,0,0,0,0,0c0,0,0,0,0,0c1.2,0,2.2-0.4,3-1.2
		c0.6,0.8,1.6,1.2,2.8,1.2c0,0,0,0,0,0c0,0,0,0,0,0c1.6,0,3-0.9,3.8-2.3c0.1,0.2,0.3,0.4,0.4,0.6c0.9,1.1,2.3,1.7,3.8,1.7
		c3.1,0,5.9-2.5,6.4-5.5c0-0.2,0.1-0.5,0.1-0.7c1.1-0.1,2.1-0.5,3-0.9c-0.4,1-0.7,1.8-0.9,2.3c-0.5,1.3-0.4,2.5,0.2,3.5
		c0.6,0.9,1.7,1.4,2.9,1.4c1.8,0,3.3-1,4-2.8c0.3-0.7,1.6-4.1,2.6-6.8c0.6,0.7,1.7,1.5,2.6,1.8c-0.4,1-1,2.7-1.1,2.9
		c-0.5,1.3-0.4,2.5,0.2,3.5c0.6,0.9,1.7,1.4,2.9,1.4c1.2,0,2.4-0.5,3.3-1.4c0.9,0.9,2.2,1.4,3.6,1.4c1.6,0,3.1-0.6,4.2-1.7
		c0.5,0.9,1.6,1.7,3.1,1.7c0,0,0,0,0,0c0,0,0,0,0,0c1.8,0,3.3-1,4-2.8c0.1-0.1,1.2-2.9,1.7-4.2c0.3,0.6,0.6,1.1,0.9,1.7
		c0.8,1.5,1.6,3,1.6,4.5c0,3.3-2.2,3.9-2.9,4c-0.6,0.1-1,0.6-0.9,1.2c0.1,0.5,0.5,0.9,1,0.9c0,0,0.1,0,0.1,0c2.2-0.3,4.7-2.1,4.7-6
		c0-2-1-3.8-1.8-5.5c-0.7-1.4-1.4-2.6-1.2-3.6c0.1-0.7,0.6-1.1,1.4-1.1c0.1,0,0.2-0.1,0.2-0.2l0.4-0.9c0.1-0.2,0-0.3-0.1-0.4
		c-0.2-0.1-0.6-0.3-1-0.3c-1.1,0-2.4,0.4-3.5,3.2c0,0.1-2.2,5.8-2.3,6c-0.3,0.7-0.9,1.5-2.1,1.5c-0.5,0-1-0.2-1.2-0.5
		c-0.2-0.3-0.2-0.6-0.2-1c0-0.3,0.2-0.6,0.3-1c0.8-2.2,3.8-9.8,4.8-12.2c0.1-0.3,0-0.5-0.4-0.5h-1.1c-0.3,0-0.7,0.2-0.8,0.5
		c-0.7,1.8-2,5.1-3,7.8c-0.1-0.2-0.3-0.4-0.5-0.7c-0.9-1.1-2.3-1.7-3.8-1.7c-3.1,0-5.9,2.5-6.4,5.5c-0.1,0.9-0.1,1.8,0.2,2.6
		c-0.4,0.7-1.3,1.2-2.1,1.2c-0.5,0-1-0.2-1.2-0.5c-0.3-0.4-0.3-0.9,0-1.6c0.1-0.3,1.2-3.1,1.3-3.4c0.1-0.2,0.3-0.7,0-1.2
		c-0.3-0.5-0.8-0.7-1.2-0.8c-1-0.4-2.4-1.1-2.4-2.4c0-0.4-0.1-0.7-0.5-0.7h-1.1c-0.3,0-0.7,0.2-0.8,0.5c-1.1,2.7-3,7.8-3.4,8.7
		c-0.3,0.7-0.9,1.5-2.1,1.5c-0.5,0-1-0.2-1.2-0.5c-0.3-0.4-0.3-0.9,0-1.6c0.4-1.1,1.8-4.6,2.5-6.4c0.1-0.3,0-0.5-0.4-0.5h-1.2
		c-0.3,0-0.7,0.2-0.9,0.5c-1.1,1.3-2.9,2.1-4.4,2.3c-0.2-0.5-0.5-1-0.8-1.4c-0.9-1.1-2.3-1.7-3.8-1.7c-0.8,0-1.6,0.2-2.4,0.5
		c0.8-2.2,1.7-4.3,2.3-5.9c0.1-0.3,0-0.5-0.4-0.5h-1.1c-0.3,0-0.7,0.2-0.8,0.5c-1.7,4.5-4.8,12.3-5.1,13.2c-0.3,0.7-0.9,1.5-2.1,1.5
		c-0.5,0-1-0.2-1.2-0.5c-0.2-0.3-0.2-0.6-0.2-1c0.1-0.4,0.4-1.3,0.4-1.3C39.3,38.5,43.7,27.1,44.9,23.9z M21.5,41.3
		c-0.9,0-1.7-0.3-2.2-1c-0.5-0.6-0.8-1.5-0.6-2.5c0.3-2.1,2.2-3.8,4.2-3.8c0.9,0,1.7,0.3,2.2,1c0.5,0.6,0.8,1.5,0.6,2.5
		C25.4,39.6,23.6,41.3,21.5,41.3z M52.3,37.5c-0.3,2.1-2.2,3.8-4.2,3.8c-0.9,0-1.7-0.3-2.2-1c-0.5-0.6-0.8-1.5-0.6-2.5
		c0.1-0.6,0.3-1,0.4-1.3c0.7-1.5,2.2-2.5,3.8-2.5c0.9,0,1.7,0.3,2.2,1C52.3,35.7,52.5,36.6,52.3,37.5z M78.3,41.3
		c-0.9,0-1.7-0.3-2.2-1c-0.5-0.6-0.8-1.5-0.6-2.5c0.3-2.1,2.2-3.8,4.2-3.8c0.9,0,1.7,0.3,2.2,1c0.5,0.6,0.8,1.5,0.6,2.5
		C82.2,39.6,80.3,41.3,78.3,41.3z M60,28.8c0.1-0.8,0.9-1.5,1.7-1.5c0.8,0,1.4,0.7,1.2,1.5c-0.1,0.8-0.9,1.5-1.7,1.5
		C60.5,30.3,59.9,29.6,60,28.8z"/>
</g>
</svg>
