<svg width="112" height="72" viewBox="0 0 112 72" fill="none" xmlns="http://www.w3.org/2000/svg">
<path d="M77.1887 23.7752H76.8629V23.2885H77.1451C77.3534 23.2885 77.4525 23.3789 77.4525 23.5314C77.4525 23.684 77.3416 23.7752 77.1887 23.7752Z" fill="#1A1A1A"/>
<path fill-rule="evenodd" clip-rule="evenodd" d="M75.6903 23.8297C75.6903 23.0294 76.3295 22.3817 77.119 22.3817C77.9086 22.3817 78.5436 23.0303 78.5436 23.8297C78.5436 24.6291 77.9052 25.2769 77.119 25.2769C76.3328 25.2769 75.6903 24.6283 75.6903 23.8297ZM77.2274 23.0192H76.563V24.6394H76.8629V24.0436H77.1493L77.4584 24.6394H77.8053L77.4491 23.9857L77.4525 23.9844C77.5324 23.9542 77.7649 23.8663 77.7649 23.5093C77.7649 23.2255 77.5659 23.0192 77.2274 23.0192Z" fill="#1A1A1A"/>
<path d="M59.6483 46.9396H58.9116L59.2804 45.7857H59.2888L59.6483 46.9396Z" fill="#1A1A1A"/>
<path fill-rule="evenodd" clip-rule="evenodd" d="M31 16H81V56H31V16ZM77.0972 25.6749C78.1051 25.6749 78.9224 24.8465 78.9224 23.8229C78.9224 22.7993 78.1051 21.9701 77.0972 21.9701C76.0893 21.9701 75.2703 22.7985 75.2703 23.8229C75.2703 24.8473 76.0884 25.6749 77.0972 25.6749ZM65.8185 47.572C65.459 47.572 65.223 47.4467 65.2045 47.0598H64.3587C64.362 47.9035 65.0524 48.2351 65.7672 48.2351C66.482 48.2351 67.1817 47.9683 67.1817 47.1339C67.1817 46.5391 66.7088 46.3166 66.241 46.1837C66.1412 46.1555 66.0418 46.1312 65.9469 46.108C65.591 46.021 65.2994 45.9497 65.2994 45.7499C65.2994 45.5325 65.5262 45.4678 65.7084 45.4678C65.968 45.4678 66.2452 45.5658 66.2317 45.8649H67.0775C67.0725 45.1226 66.4224 44.8039 65.7773 44.8039C65.1675 44.8039 64.4544 45.0851 64.4544 45.8053C64.4544 46.4095 64.9399 46.6209 65.4044 46.7555C65.4885 46.7796 65.5726 46.8011 65.6538 46.8219C66.024 46.9167 66.3359 46.9965 66.3359 47.2362C66.3359 47.4791 66.0721 47.572 65.8185 47.572ZM42.054 44.8729H44.641V45.5598H42.8998V46.1368H44.4907V46.8016H42.8998V47.428H44.6864V48.1669H42.054V44.8729ZM70.6834 44.8729H71.5519L72.6791 46.903H72.6883V44.8729H73.4838V48.1669H72.6153L71.4881 46.1138H71.4788V48.1669H70.6834V44.8729ZM61.1677 44.8729H62.0354L63.1634 46.903H63.1718V44.8729H63.9681V48.1669H63.0996L61.9724 46.1138H61.9623V48.1669H61.1677V44.8729ZM59.7163 44.8729H58.857L57.6433 48.166H58.5118L58.7159 47.5754H59.8482L60.0481 48.166H60.93L59.7163 44.8729ZM54.5977 44.8729H55.4435V46.0729H56.5564V44.8729H57.4023V48.1669H56.5564V46.8101H55.4435V48.1669H54.5977V44.8729ZM51.7889 48.166V46.9396L52.9699 44.8729H52.0107L51.3656 46.2101L50.7205 44.8729H49.7613L50.9423 46.9396V48.166H51.7889ZM45.1685 44.8729H46.0143V47.428H47.5279V48.1669H45.1685V44.8729ZM48.792 44.8729H47.9462V48.1669H50.3056V47.428H48.792V44.8729ZM67.5781 44.8729H70.1652V45.5598H68.424V46.1368H70.0157V46.8016H68.424V47.428H70.2114V48.1669H67.5781V44.8729ZM39.5216 44.8729H38.6758V48.1669H39.5216V46.8101H40.6354V48.1669H41.4803V44.8729H40.6354V46.0729H39.5216V44.8729ZM59.0133 23.8306H61.3911V30.3955H67.3001V23.8306H73.4779V42.5939H67.2783V36.1568H61.371V42.5939H55.425L59.0133 23.8306ZM50.7642 42.5939H53.1438L56.7505 23.8306H50.7852V30.3964H44.8762V23.8306H38.6783V42.5939H44.8552V36.1577H50.7642V42.5939Z" fill="#1A1A1A"/>
</svg>
